<?xml version="1.0" encoding="UTF-8"?>
<svg id="_图层_2" data-name="图层 2" xmlns="http://www.w3.org/2000/svg" viewBox="0 0 310.81 119.96">
  <defs>
    <style>
      .cls-1 {
        fill: none;
      }

      .cls-2 {
        fill: #fff;
      }
    </style>
  </defs>
  <g id="Artwork">
    <g>
      <rect class="cls-1" width="310.81" height="119.96"/>
      <g>
        <path class="cls-2" d="M36.75,43.43c6.09-3.27,9.89-10.03,9.05-17.35-.08-.72-.22-1.41-.38-2.09-6.09,3.27-9.89,10.03-9.05,17.35.08.72.22,1.41.38,2.09Z"/>
        <path class="cls-2" d="M62.65,19.06c.25-.5.46-1.02.64-1.54-5.38-.46-10.76,2.35-13.33,7.51-.25.5-.46,1.02-.64,1.54,5.38.46,10.76-2.35,13.33-7.51Z"/>
        <path class="cls-2" d="M94.32,26.57c-.18-.52-.39-1.03-.64-1.54-2.57-5.15-7.95-7.96-13.33-7.51.18.52.39,1.03.64,1.54,2.57,5.15,7.95,7.96,13.33,7.51Z"/>
        <path class="cls-2" d="M31.62,62.23c4.49-6.66,4.74-15.69-.09-22.76-.47-.69-.99-1.33-1.53-1.95-4.49,6.66-4.74,15.69.09,22.76.47.69.99,1.33,1.53,1.95Z"/>
        <path class="cls-2" d="M106.88,43.43c.16-.68.3-1.38.38-2.09.84-7.32-2.96-14.08-9.05-17.35-.16.68-.3,1.38-.38,2.09-.84,7.32,2.96,14.08,9.05,17.35Z"/>
        <path class="cls-2" d="M113.54,60.28c4.83-7.07,4.59-16.09.09-22.76-.54.61-1.06,1.25-1.53,1.95-4.83,7.07-4.59,16.09-.09,22.76.54-.61,1.06-1.25,1.53-1.95Z"/>
        <path class="cls-2" d="M99.65,90.51c.55.05,1.1.08,1.66.06,5.76-.17,10.57-3.86,12.42-8.94-.55-.05-1.1-.08-1.66-.06-5.76.17-10.57,3.86-12.42,8.94Z"/>
        <path class="cls-2" d="M34.94,79.65c.84-6.86-2.49-13.87-8.95-17.4-.63-.35-1.28-.63-1.93-.89-.84,6.86,2.49,13.87,8.95,17.4.63.35,1.28.63,1.93.89Z"/>
        <path class="cls-2" d="M117.64,62.25c-6.46,3.53-9.8,10.54-8.95,17.4.65-.26,1.3-.55,1.93-.89,6.46-3.53,9.8-10.54,8.95-17.4-.65.26-1.3.55-1.93.89Z"/>
        <path class="cls-2" d="M82.71,89.25c-2.48-.3-4.16-.03-5.03.19l-.37-6.75c1.47.63,2.97,1.14,4.44,1.47,4.8,1.09,11.32.04,15.43-4.26,1.01-1.06,2.46-2.88,3.46-5.69-2.55.1-5.1.21-7.64.31,1.56-.88,4.89-3.04,7.22-7.19,3.05-5.45,2.35-10.71,2.06-12.33-.66.65-1.31,1.29-1.97,1.94.11-1.63.07-4.12-.79-6.97-.65-2.15-1.57-3.84-2.35-5.03l-9.75,9.83c.67-1.71,2.36-6.72.56-12.65-1.14-3.76-3.22-6.32-4.5-7.66-.3.91-.6,1.82-.9,2.73-1.05-1.57-2.01-2.77-2.67-3.56-1.86-2.23-3.01-3.14-5.34-5.72-1.23-1.36-2.18-2.5-2.76-3.22-.58.72-1.53,1.86-2.76,3.22-2.34,2.58-3.48,3.49-5.34,5.72-.66.79-1.61,1.99-2.67,3.56-.3-.91-.6-1.82-.9-2.73-1.28,1.35-3.36,3.9-4.5,7.66-1.8,5.92-.1,10.94.56,12.65l-9.75-9.83c-.78,1.19-1.7,2.88-2.35,5.03-.86,2.85-.9,5.34-.79,6.97-.66-.65-1.31-1.29-1.97-1.94-.28,1.63-.99,6.89,2.06,12.33,2.32,4.15,5.66,6.31,7.22,7.19-2.55-.1-5.09-.21-7.64-.31,1,2.81,2.45,4.63,3.46,5.69,4.12,4.3,10.63,5.35,15.43,4.26,1.47-.33,2.96-.84,4.43-1.47l-.37,6.74c-.92-.25-2.54-.49-5.03-.19-7.48.91-9.89,6.75-14.86,5.96-.95-.15-2.33-.6-3.88-2.04.3,1.09,1.12,3.45,3.35,5.04,2.13,1.53,5.05,2.05,7.55,1.35,3.27-.93,7.67-4.57,9.42-4.97.93-.21,1.62.3,1.53,1.24-.15,1.45-4.76,4.75-5.56,5.3v1.39h26.7v-1.39c-.8-.55-5.41-3.84-5.56-5.3-.09-.93.6-1.45,1.53-1.24,1.75.4,6.15,4.04,9.42,4.97,2.5.71,5.41.18,7.55-1.35,2.23-1.6,3.05-3.95,3.35-5.04-1.55,1.44-2.94,1.88-3.88,2.04-4.98.79-7.39-5.04-14.86-5.96ZM71.82,99.48h-4.42c1.2-2.22,2.25-3.97,2.46-7.95.21-3.98.38-16.27.38-16.27-2-.7-4.93-1.99-7.94-4.39-3.04-2.42-4.97-5.01-6.1-6.81l1.67-1.12c1.08,1.54,2.84,3.68,5.49,5.67,2.63,1.97,5.16,3.05,6.93,3.65l.14-9.06c-1.38-.59-3.46-1.67-5.52-3.6-2.07-1.94-3.29-3.96-3.96-5.3l1.76-.96c.63,1.08,1.68,2.61,3.36,4.08,1.65,1.44,3.27,2.28,4.41,2.77l.16-11c.4,0,.8,0,1.2,0,.4,0,.8,0,1.2,0l.16,11c1.14-.48,2.76-1.32,4.41-2.77,1.67-1.47,2.73-3,3.36-4.08l1.76.96c-.68,1.34-1.89,3.36-3.96,5.3-2.06,1.93-4.14,3.01-5.52,3.6l.14,9.06c1.77-.6,4.3-1.68,6.93-3.65,2.66-1.99,4.41-4.13,5.49-5.67l1.67,1.12c-1.13,1.8-3.06,4.39-6.1,6.81-3.02,2.4-5.95,3.69-7.94,4.39,0,0,.17,12.29.38,16.27.21,3.98,1.25,5.73,2.46,7.95h-4.42Z"/>
        <path class="cls-2" d="M43.98,90.51c-1.85-5.08-6.66-8.78-12.42-8.94-.56-.02-1.12.01-1.66.06,1.85,5.08,6.66,8.78,12.42,8.94.56.02,1.12-.01,1.66-.06Z"/>
        <polygon class="cls-2" points="189.13 24.03 179.72 24.03 179.46 29.09 164.84 29.09 164.67 29.09 164.4 24.03 154.99 24.03 155.57 29.09 137.79 29.09 137.79 35.67 156.32 35.67 156.89 40.74 165.27 40.74 165.01 35.67 179.11 35.67 178.85 40.74 187.23 40.74 187.81 35.67 188.13 35.67 206.34 35.67 206.34 29.09 188.55 29.09 189.13 24.03"/>
        <path class="cls-2" d="M196.53,45.29h-44.11c.92-1.81,1.55-3.44,1.97-4.74h-9.03c-.89,1.93-2.28,4.42-4.46,6.94-3.15,3.64-6.57,5.76-8.84,6.92,1.19,2.21,2.39,4.42,3.58,6.63,3.67-1.75,6.42-3.76,8.29-5.33,1.13-.95,2.87-2.45,4.7-4.66h44.65c1.14,0,2.06.92,2.06,2.06v25.83l-1.93,17.03h9.41l1.93-17.03v-25.42c0-4.54-3.68-8.22-8.22-8.22Z"/>
        <path class="cls-2" d="M183.62,57.37h-12.9v-2.95h-8.79v2.95h-17.64v4.93h17.64v4.38h-17.64v29.28h8.79v-4.81h8.85v4.81h8.79v-4.81h8.85v4.81h8.79v-25.99c0-1.82-1.48-3.29-3.29-3.29h-14.34v-4.38h16.64c1.39,0,2.52-1.13,2.52-2.52v-5.37h-6.26v2.95ZM161.93,71.66v4.81h-8.85v-4.81h8.85ZM153.09,86.22v-4.81h8.85v4.81h-8.85ZM170.72,86.22v-4.81h8.85v4.81h-8.85ZM178.75,71.66c.45,0,.82.37.82.82v3.99h-8.85v-4.81h8.03Z"/>
        <path class="cls-2" d="M238.51,48.06h43.97v-5.92h0v-10.16c0-3.46-2.8-6.26-6.26-6.26h-56.13v22.34h18.41ZM271.1,31.64c.95,0,1.73.77,1.73,1.73v8.77h-8.75v-10.5h7.03ZM255.52,31.64v10.5h-8.45v-10.5h8.45ZM229.76,31.64h8.75v10.5h-8.75v-10.5Z"/>
        <path class="cls-2" d="M284.03,59.79v-7.14c-10.14,1-20.42,1.8-30.59,2.34-11.56.62-23.26.93-34.88.95v7.11c9.13-.02,18.33-.22,27.47-.6v33.52h10.53v-34.04c9.15-.53,18.36-1.24,27.47-2.13Z"/>
        <path class="cls-2" d="M277.86,73.86c.7-2.05,1.34-4.13,1.96-6.22h-8.34c-3.06,9.77-6.98,19.03-11.22,26.55h9.07c1.61-3.14,3.17-6.49,4.63-9.99,1.35,3.32,2.94,6.69,4.71,9.99h8.15c-3.94-6.69-7.13-13.9-8.95-20.33Z"/>
        <path class="cls-2" d="M235.32,67.65h-8.34c-3.06,9.77-6.98,19.03-11.22,26.55h9.07c1.61-3.14,3.17-6.49,4.63-9.99,1.35,3.32,2.94,6.69,4.71,9.99h8.15c-3.94-6.69-7.13-13.9-8.95-20.33.7-2.05,1.34-4.13,1.96-6.22Z"/>
      </g>
    </g>
  </g>
</svg>