<?xml version="1.0" encoding="UTF-8"?>
<svg id="_图层_2" data-name="图层 2" xmlns="http://www.w3.org/2000/svg" viewBox="0 0 443.29 79.08">
  <defs>
    <style>
      .cls-1 {
        fill: #fff;
      }
    </style>
  </defs>
  <g id="_圖層_1" data-name="圖層 1">
    <g>
      <path class="cls-1" d="M407.44,6.71c-21.48,0-35.85,15.49-35.85,34.6s14.37,34.6,35.85,34.6,35.85-15.49,35.85-34.6-14.37-34.6-35.85-34.6M407.44,62.48c-12.13,0-20.25-9.48-20.25-21.18s8.12-21.18,20.25-21.18,20.25,9.48,20.25,21.18-8.12,21.18-20.25,21.18"/>
      <path class="cls-1" d="M302.48,41.31c0,19.11,14.37,34.6,35.85,34.6,9.3,0,18.28-2.36,25.81-6.32v-17.22c-5.16,6-14.2,10.1-23.8,10.1-13.14,0-21.92-9.47-21.92-21.16s8.79-21.16,21.92-21.16c9.6,0,18.64,4.1,23.8,10.1V13.03c-7.53-3.96-16.51-6.32-25.81-6.32-21.48,0-35.85,15.49-35.85,34.6"/>
      <path class="cls-1" d="M44.69,48.46c0,7.34-3.92,14.03-14.35,14.03s-14.35-6.69-14.35-14.03V8.09H0v38.77h0C0,61.57,5.86,75.79,30.34,75.79s30.34-14.22,30.34-28.94h0V8.09h-15.99v40.37Z"/>
      <polygon class="cls-1" points="170.94 8.09 159.5 8.09 157.06 8.09 131.29 75.04 146.94 75.04 165.22 24.04 183.51 75.04 200.14 75.04 174.37 8.09 170.94 8.09"/>
      <polygon class="cls-1" points="120.95 8.09 102.41 57.14 83.87 8.09 66.77 8.09 94.42 75.04 95.65 75.04 109.18 75.04 109.54 75.04 137.18 8.09 120.95 8.09"/>
      <path class="cls-1" d="M214.99,24.13c5.66-3.04,9.2-9.33,8.42-16.13-.08-.67-.2-1.31-.36-1.95-5.66,3.04-9.2,9.33-8.42,16.13.08.67.2,1.31.36,1.95"/>
      <path class="cls-1" d="M239.07,1.47c.23-.47.43-.95.6-1.43-5.01-.43-10.01,2.19-12.4,6.98-.23.47-.43.95-.6,1.43,5.01.43,10.01-2.19,12.4-6.98"/>
      <path class="cls-1" d="M268.53,8.45c-.17-.48-.36-.96-.6-1.43-2.39-4.79-7.39-7.4-12.4-6.98.17.48.36.96.6,1.43,2.39,4.79,7.39,7.41,12.4,6.98"/>
      <path class="cls-1" d="M210.22,41.62c4.18-6.2,4.41-14.59-.09-21.16-.44-.64-.92-1.24-1.42-1.81-4.18,6.2-4.41,14.59.09,21.16.44.64.92,1.24,1.42,1.81"/>
      <path class="cls-1" d="M280.2,24.13c.15-.63.28-1.28.36-1.95.78-6.8-2.76-13.09-8.42-16.13-.15.64-.28,1.28-.36,1.95-.78,6.8,2.76,13.09,8.42,16.13"/>
      <path class="cls-1" d="M286.4,39.81c4.49-6.58,4.27-14.97.09-21.16-.5.57-.98,1.17-1.42,1.81-4.49,6.58-4.27,14.97-.09,21.16.5-.57.98-1.17,1.42-1.81"/>
      <path class="cls-1" d="M273.48,67.91c.51.05,1.02.07,1.55.06,5.35-.15,9.83-3.59,11.55-8.32-.51-.05-1.02-.07-1.55-.06-5.35.15-9.83,3.59-11.54,8.32"/>
      <path class="cls-1" d="M213.31,57.81c.78-6.38-2.32-12.89-8.33-16.18-.59-.32-1.19-.59-1.8-.83-.78,6.38,2.32,12.89,8.33,16.18.59.32,1.19.59,1.8.83"/>
      <path class="cls-1" d="M292.01,40.8c-.61.24-1.21.51-1.8.83-6.01,3.28-9.11,9.8-8.33,16.18.61-.24,1.21-.51,1.8-.83,6.01-3.28,9.11-9.8,8.33-16.18"/>
      <path class="cls-1" d="M257.73,66.74c-2.31-.28-3.87-.03-4.68.18l-.35-6.27c1.37.58,2.76,1.06,4.13,1.37,4.46,1.01,10.52.03,14.35-3.96.94-.98,2.29-2.68,3.22-5.29-2.37.1-4.74.19-7.11.29,1.45-.82,4.55-2.83,6.71-6.69,2.84-5.06,2.18-9.96,1.92-11.47-.61.6-1.22,1.2-1.83,1.8.1-1.52.07-3.83-.74-6.48-.61-2-1.46-3.57-2.18-4.68l-9.06,9.14c.62-1.59,2.2-6.25.52-11.76-1.06-3.5-2.99-5.87-4.18-7.12-.28.85-.56,1.69-.83,2.54-.98-1.46-1.87-2.57-2.48-3.31-1.73-2.07-2.79-2.92-4.97-5.32-1.14-1.26-2.02-2.32-2.56-2.99-.54.67-1.42,1.73-2.56,2.99-2.17,2.4-3.24,3.25-4.97,5.32-.61.73-1.5,1.85-2.48,3.31-.28-.85-.55-1.69-.83-2.54-1.19,1.25-3.12,3.62-4.18,7.12-1.67,5.51-.1,10.17.52,11.76l-9.06-9.14c-.72,1.11-1.58,2.68-2.19,4.68-.8,2.65-.84,4.96-.74,6.48-.61-.6-1.22-1.2-1.83-1.8-.27,1.51-.92,6.41,1.92,11.47,2.16,3.86,5.26,5.87,6.71,6.69-2.37-.1-4.74-.19-7.11-.29.93,2.61,2.28,4.31,3.22,5.29,3.83,4,9.89,4.97,14.35,3.96,1.36-.31,2.75-.78,4.12-1.37l-.35,6.26c-.85-.23-2.36-.46-4.68-.17-6.95.85-9.19,6.28-13.82,5.54-.88-.14-2.17-.56-3.61-1.89.28,1.01,1.05,3.21,3.12,4.69,1.99,1.42,4.7,1.91,7.02,1.25,3.04-.86,7.13-4.25,8.76-4.62.86-.2,1.51.28,1.42,1.15-.14,1.35-4.42,4.42-5.17,4.92v1.3h24.83v-1.3c-.75-.51-5.03-3.57-5.17-4.92-.09-.87.56-1.35,1.42-1.15,1.63.37,5.72,3.76,8.76,4.62,2.32.66,5.04.17,7.02-1.25,2.07-1.48,2.84-3.68,3.12-4.69-1.44,1.34-2.73,1.75-3.61,1.89-4.63.74-6.87-4.69-13.82-5.54M247.6,76.26h-4.11c1.12-2.06,2.09-3.69,2.29-7.39.2-3.7.35-15.13.35-15.13-1.86-.65-4.58-1.85-7.39-4.08-2.83-2.25-4.62-4.66-5.68-6.33l1.55-1.04c1,1.43,2.64,3.42,5.11,5.27,2.45,1.83,4.8,2.84,6.45,3.4l.12-8.42c-1.28-.55-3.22-1.55-5.13-3.35-1.93-1.81-3.06-3.68-3.69-4.93l1.64-.89c.58,1,1.57,2.43,3.12,3.79,1.53,1.34,3.04,2.12,4.1,2.57l.15-10.23c.37,0,.74,0,1.12,0s.74,0,1.12,0l.15,10.23c1.06-.45,2.57-1.23,4.1-2.57,1.56-1.37,2.54-2.79,3.12-3.79l1.64.89c-.63,1.25-1.76,3.12-3.69,4.93-1.92,1.8-3.85,2.8-5.13,3.35l.12,8.42c1.65-.56,4-1.56,6.45-3.4,2.47-1.85,4.1-3.84,5.11-5.27l1.55,1.04c-1.05,1.67-2.85,4.08-5.68,6.33-2.8,2.23-5.53,3.43-7.39,4.08,0,0,.16,11.43.35,15.13.19,3.7,1.17,5.33,2.29,7.39h-4.11Z"/>
      <path class="cls-1" d="M221.71,67.91c-1.72-4.72-6.19-8.16-11.55-8.32-.52-.01-1.04.01-1.55.06,1.72,4.72,6.19,8.16,11.55,8.32.52.01,1.04-.01,1.55-.06"/>
    </g>
  </g>
</svg>