<?xml version="1.0" encoding="UTF-8"?>
<svg id="b" data-name="圖層 2" xmlns="http://www.w3.org/2000/svg" viewBox="0 0 285.96 324.96">
  <defs>
    <style>
      .d {
        fill: #f5e328;
      }

      .e {
        fill: #f7ec82;
        stroke: #f9f1a9;
        stroke-miterlimit: 10;
      }
    </style>
  </defs>
  <g id="c" data-name="圖層 1">
    <g>
      <g>
        <path class="d" d="M110.71,141.68s0-1.21,5.02-1.21c0,0,15.38-1.22,17.28-4.33,0,0,2.5-3.43-2.93-6.9,0,0-8.28-6.81-3.45-5.47,0,0,8.51,6.25,9.64,8.59,0,0,2.32-.77,2.75,.35,0,0,1.81-7.19,2.58-10.72,0,0-.77-5.01-1.19-7.33,0,0-3.41-3.34-5.75-5.66,0,0-16.55-18.48-11.12-17.88,1.51,.99,4.14,4.67,5.53,6.47,2.29,2.97,12.04,14.21,12.83,7.62,.13-1.06,.06-2.06,.17-3.12,.3-3.25,.42-6.58,.56-9.84,.17-3.99,.42-7.95,.68-11.93,.23-3.56,.42-7.14,.57-10.7,.09-2.04,.22-4.08,.21-6.12,0-.11,0-.22,0-.32-.18-3.12,3.11-3.7,2.87,2.87-.22,6.57-.77,39.51-.77,39.51,0,0,.45,5.85,2.76,3.52,0,0,4.51-2.68,5.9-8.43,.82-3.33,9.48-12.09,9.35-9.53,0,0-3.43,4.85-5.47,8.95,0,0-2.88,4.87-4.07,8,0,0-2.38,6.15-6.88,7,0,0-.13,5.39-1.33,6.92,0,0-1.46,7.49,1.24,9.69,0,0,1.66,1.33,4.76-.55,3.09-1.87,10.98-9.7,12.18-12.03,0,0,1.06,2.81-1.57,5.84,0,0-4.34,4.83-6.03,6.61-1.71,1.78-8.24,5.65-2.64,6.07,0,0,14.58,1.19,17.98,.52,0,0,2.25,5.07-13.74,2.8,0,0-8-2.39-9.91,1.87,0,0-.08,.84-.18,2.2,.54,.57,2.04,1.94,3.27,1.32,0,0-.76,5.86,4.24,5.07,0,0,13.23,25.61,27.59,20.94,0,0,4.22-1.52,4.22-3.87,0,0-3.46-3.11-6.19-5.07,0,0,7.37,2.75,15.48-3.1,0,0,0-3.89-1.9-5.02,0,0,3.49-5.08,8.92-6.22,0,0,4.63-5.49,5.78-12.83,0,0-10.06,0-10.43-6.61,0,0,16.62-3.52,22.08-12.83,0,0,4.67-1.92,.39-7,0,0-1.56,2.33-3.9,1.97,0,0-9.68,1.9-11.22-.77,0,0,6.18-3.12-1.92-2.76,0,0-2.75,0,1.54-3.89,0,0,3.1-3.86,1.92-6.2,0,0,6.18-8.59,2.32-20.23,0,0-2.69,.42-4.24,1.21,0,0,2.31-4.68,1.14-8.19,0,0,6.96-9.31,7.38-8.96,0,0,0-3.1-5.42-1.55-5.9,1.71-10.39,6.26-15.72,9.11-5.73,3.05-11.85,5.86-17.63,8.02,0,0,3.45-5.86,1.54-8.59l-1.96-2.7s1.18-8.18-1.55-13.62c0,0-5,5.08-4.23-1.94,0,0-.77-11.65-8.51-15.53,0,0-2,6.21-2.33,7.39,0,0-1.18-.76-3.16-7.76-.59-1.27-1.25-2.52-1.91-3.76-.92-1.71-2.33-3.17-3.02-5.01-.66-1.74-.31-3.84-1.6-5.3-1.01-1.17-2.64-2.04-4.23-1.62-2.15,.57-3.94,3.05-4.21,5.22-.47,3.49-3.61,6.09-3.61,9.69,0,0-6.19-5.04-6.98,7.78,0,0-1.54-4.32-5.06-1.98,0,0-3.51,3.13-1.12,10.88,0,0-2.39,1.94-3.93-2.7,0,0-6.2-7.4-5,10.87,0,0,1.55,1.19-1.56,1.19,0,0-2.32,1.13-1.53,7.76,0,0,0,7.75,4.23,12.84,0,0-.38,2.68-4.67-.41,0,0-8.92-7.77-15.89-10.87,0,0-11.64-10.51-13.59-14.74,0,0-1.91-.44-2.33,5.42,0,0,.42,16.29,2.76,19.81,0,0-.79,1.92-3.1,2.33,0,0-1.55,15.16,5.03,22.95,0,0,.78,1.9-2.36,2.32,0,0-8.88-1.57-5.41,5.85,0,0,1.96,9.31,9.34,10.86,0,0-1.57,4.24-7.38,2.69,0,0-16.33-1.56-12.04,2.37,0,0,6.2,3.12,6.2,7.37,0,0,1.19,1.17,3.88,1.94,0,0,4.63,10.88,10.11,10.88,0,0,3.89,1.54,2.33,6.2,0,0,0,7.41,13.93,4.67,0,0,1.54,1.53-1.13,2.33,0,0-5.85,3.52,2.34,7.39,0,0,10.05,7.77,18.57-2.7,0,0,4.29,6.99,5.83-.41,0,0,1.7-15.47,6.52-21.02-.28-2.49-.83-4.63-1.87-5.41,0,0-13.6,3.89-22.89,1.21Z"/>
        <path class="e" d="M172.37,138.14c-3.4,.67-17.98-.52-17.98-.52-5.6-.42,.93-4.29,2.64-6.07,1.69-1.78,6.03-6.61,6.03-6.61,2.62-3.03,1.57-5.84,1.57-5.84-1.2,2.33-9.09,10.16-12.18,12.03-3.11,1.87-4.76,.55-4.76,.55-2.7-2.2-1.24-9.69-1.24-9.69,1.19-1.53,1.33-6.92,1.33-6.92,4.5-.85,6.88-7,6.88-7,1.19-3.13,4.07-8,4.07-8,2.04-4.1,5.47-8.95,5.47-8.95,.13-2.56-8.53,6.2-9.35,9.53-1.39,5.75-5.9,8.43-5.9,8.43-2.31,2.33-2.76-3.52-2.76-3.52,0,0,.55-32.94,.77-39.51,.23-6.57-3.05-5.98-2.87-2.87,0,.11,0,.21,0,.32,0,2.04-.12,4.08-.21,6.12-.15,3.56-.34,7.14-.57,10.7-.26,3.98-.51,7.94-.68,11.93-.14,3.26-.27,6.59-.56,9.84-.11,1.06-.04,2.06-.17,3.12-.8,6.59-10.54-4.65-12.83-7.62-1.39-1.8-4.01-5.47-5.53-6.47-5.43-.6,11.12,17.88,11.12,17.88,2.34,2.32,5.75,5.66,5.75,5.66,.42,2.33,1.19,7.33,1.19,7.33-.77,3.53-2.58,10.72-2.58,10.72-.43-1.12-2.75-.35-2.75-.35-1.13-2.34-9.64-8.59-9.64-8.59-4.84-1.34,3.45,5.47,3.45,5.47,5.43,3.47,2.93,6.9,2.93,6.9-1.9,3.12-17.28,4.33-17.28,4.33-5.02,0-5.02,1.21-5.02,1.21,9.3,2.68,22.89-1.21,22.89-1.21,1.04,.79,1.59,2.93,1.87,5.41,.56,4.95,.04,11.3,.04,11.3,.39,12.81-2.75,21.9-3.13,22.97,3.47,.75,7.05,2.16,10.41,4.57,3.96-2.84,8.21-4.27,12.25-4.89-.59-.36-1.16-.89-1.44-1.19-6.39-6.72-5.53-26.96-5.06-33.63,.1-1.36,.18-2.2,.18-2.2,1.92-4.26,9.91-1.87,9.91-1.87,15.99,2.27,13.74-2.8,13.74-2.8Z"/>
        <path class="d" d="M201.63,14.08c11.87,4.6,13.68,6.74,13.68,6.74-.59-8.88-5.45-13.48-5.45-13.48-6.11-5.22-16.48-4.93-16.48-4.93,.59,7.07,8.25,11.67,8.25,11.67Z"/>
        <path class="d" d="M167.21,8.34c10.69,2.43,18.25-.04,18.25-.04-2.36-6.32-16.17-7.07-16.17-7.07-3.59,1.24-10.94-1.23-10.94-1.23,4.2,8.49,8.86,8.34,8.86,8.34Z"/>
        <path class="d" d="M192.76,23.96c11.6,.61,20.12-1.28,20.12-1.28-5.19-4.93-18.92-9.2-18.92-9.2-5.46-.31-16.46,1.23-16.46,1.23,3.39,3.98,15.25,9.25,15.25,9.25Z"/>
        <path class="d" d="M234.83,36.53c1.83-4.89-.91-14.45-.91-14.45-2.72-6.46-15.55-11.37-15.55-11.37-.63,15.69,16.46,25.82,16.46,25.82Z"/>
        <path class="d" d="M223.59,31.94c-.91-2.45-4.62-3.38-4.62-3.38-2.43-.31-18.24-.61-18.24-.61,.62,5.84,9.42,10.13,9.42,10.13,3.35-.33,21.36,3.06,21.36,3.06-1.84-1.23-7.92-9.21-7.92-9.21Z"/>
        <path class="d" d="M223.89,55.02c2.42-.31,8.21,.9,8.21,.9,6.39,1.53,12.83,4.6,12.83,4.6,.3-10.11-7.35-13.19-7.35-13.19-3.66-3.73-21.35-4.04-21.35-4.04-.92,9.89,7.66,11.72,7.66,11.72Z"/>
        <path class="d" d="M251.6,60.52c3.38-12.59,.33-18.49,.33-18.49-1.52-5.19-9.78-13.17-9.78-13.17-6.09,17.25,9.45,31.66,9.45,31.66Z"/>
        <path class="d" d="M265.92,70.09c-1.22-16.31-6.99-16.61-6.99-16.61-3.04,3.06-5.18,13.49-5.18,13.49,1.52,3.13,5.79,16.34,5.79,16.34,2.42-2.45,6.39-13.21,6.39-13.21Z"/>
        <path class="d" d="M252.52,80.53l-.92-6.44c-.28-7.13-8.87-9.56-8.87-9.56-14.28,.29-16.12-2.15-16.12-2.15,0,7.41,9.14,11.71,9.14,11.71,5.48,1.22,16.77,6.44,16.77,6.44Z"/>
        <path class="d" d="M249.49,82.97c-4.86-5.19-16.48-3.67-16.48-3.67,.91,5.52,11.62,14.79,11.62,14.79,5.17-.32,10.02,4.59,10.02,4.59,2.76-11.4-5.16-15.71-5.16-15.71Z"/>
        <path class="d" d="M257.4,94.4c-3.05,7.96-.61,16.87-.61,16.87,4.24-1.23,11.3-8.91,11.3-8.91,7.29-11.39,0-23.67,0-23.67-.3,2.46-3.7,7.37-3.7,7.37-3.03,4.91-6.99,8.34-6.99,8.34Z"/>
        <path class="d" d="M254.05,118.37c1.51-16.93-17.99-24.91-17.99-24.91-.31,6.75,3.03,19.64,3.03,19.64,2.45,3.73,7.36,21.54,7.36,21.54,7.6-6.13,7.6-16.27,7.6-16.27Z"/>
        <path class="d" d="M254.65,124.21c-.9,9.19-7.3,17.54-7.3,17.54,4.25-.62,15.84-7.73,15.84-7.73,4.6-2.46,6.73-7.67,6.73-7.67,0-3.68,3.05-16.32,3.05-16.32-14.34,4.04-18.32,14.17-18.32,14.17Z"/>
        <path class="d" d="M236.98,165.13c18.59,3.06,29.86-27.06,29.86-27.06-16.74,3.99-29.86,27.06-29.86,27.06Z"/>
        <path class="d" d="M244.03,146.35c0-20.61-11.32-29.2-11.62-28.27-3.35,10.43,.59,45.19,.59,45.19,7.92-2.74,11.02-16.92,11.02-16.92Z"/>
        <path class="d" d="M222.38,138.37c-5.53,7.37-4.93,24.61-4.93,24.61,1.83,14.4-1.21,20.3-1.21,20.3,9.48-2.82,12.83-14.18,12.83-14.18,2.73-11.39-6.69-30.74-6.69-30.74Z"/>
        <path class="d" d="M240.01,169.43c-7.3,3.06-16.43,14.77-16.43,14.77,4.86,2.14,7.92,2.14,7.92,2.14,26.49-3.72,28.63-27.41,28.63-27.41l-.92,.32c-10.34,11.41-19.2,10.18-19.2,10.18Z"/>
        <path class="d" d="M118.74,8.34s4.66,.15,8.86-8.34c0,0-7.36,2.47-10.94,1.23,0,0-13.81,.74-16.17,7.07,0,0,7.56,2.47,18.25,.04Z"/>
        <path class="d" d="M92.59,2.41s-10.43-.29-16.48,4.93c0,0-4.89,4.59-5.48,13.48,0,0,1.83-2.14,13.74-6.74,0,0,7.6-4.59,8.22-11.67Z"/>
        <path class="d" d="M67.59,10.71s-12.83,4.92-15.57,11.37c0,0-2.71,9.56-.9,14.45,0,0,17.09-10.13,16.47-25.82Z"/>
        <path class="d" d="M73.07,22.68s8.53,1.89,20.12,1.28c0,0,11.88-5.28,15.25-9.25,0,0-11-1.54-16.46-1.23,0,0-13.73,4.27-18.91,9.2Z"/>
        <path class="d" d="M62.43,31.94s-6.13,7.98-7.96,9.21c0,0,17.99-3.39,21.34-3.06,0,0,8.85-4.29,9.48-10.13,0,0-15.88,.3-18.3,.61,0,0-3.65,.92-4.56,3.38Z"/>
        <path class="d" d="M41.08,60.52s6.39-3.07,12.77-4.6c0,0,5.79-1.22,8.26-.9,0,0,8.53-1.84,7.6-11.72,0,0-17.69,.3-21.34,4.04,0,0-7.59,3.08-7.29,13.19Z"/>
        <path class="d" d="M43.82,28.87s-8.26,7.98-9.8,13.17c0,0-3.04,5.89,.31,18.49,0,0,15.57-14.41,9.48-31.66Z"/>
        <path class="d" d="M32.21,66.96s-2.13-10.42-5.18-13.49c0,0-5.79,.3-7,16.61,0,0,3.96,10.76,6.39,13.21,0,0,4.26-13.21,5.79-16.34Z"/>
        <path class="d" d="M59.32,62.38s-1.82,2.44-16.12,2.15c0,0-8.55,2.44-8.87,9.56l-.92,6.44s11.33-5.22,16.78-6.44c0,0,9.13-4.31,9.13-11.71Z"/>
        <path class="d" d="M52.93,79.3s-11.54-1.52-16.48,3.67c0,0-7.91,4.31-5.15,15.71,0,0,4.86-4.92,10.09-4.59,0,0,10.62-9.27,11.54-14.79Z"/>
        <path class="d" d="M29.16,111.27s2.44-8.91-.62-16.87c0,0-3.96-3.43-6.99-8.34,0,0-3.35-4.91-3.66-7.37,0,0-7.34,12.28,0,23.67,0,0,7,7.68,11.27,8.91Z"/>
        <path class="d" d="M39.58,134.64s4.85-17.8,7.29-21.54c0,0,3.32-12.89,3.03-19.64,0,0-19.52,7.98-17.99,24.91,0,0,0,10.14,7.68,16.27Z"/>
        <path class="d" d="M22.77,134.03s11.56,7.11,15.88,7.73c0,0-6.44-8.36-7.34-17.54,0,0-3.97-10.13-18.31-14.17,0,0,3.02,12.64,3.02,16.32,0,0,2.19,5.2,6.75,7.67Z"/>
        <path class="d" d="M48.99,165.13s-13.13-23.07-29.88-27.06c0,0,11.26,30.13,29.88,27.06Z"/>
        <path class="d" d="M52.93,163.27s3.96-34.76,.61-45.19c-.3-.92-11.54,7.67-11.54,28.27,0,0,3.03,14.18,10.94,16.92Z"/>
        <path class="d" d="M68.5,162.98s.6-17.24-4.86-24.61c0,0-9.46,19.34-6.74,30.74,0,0,3.34,11.36,12.82,14.18,0,0-3.03-5.9-1.21-20.3Z"/>
        <path class="d" d="M45.94,169.43s-8.86,1.23-19.23-10.18l-.9-.32s2.13,23.7,28.65,27.41c0,0,3.04,0,7.96-2.14,0,0-9.19-11.71-16.49-14.77Z"/>
        <path class="d" d="M216,186.85s-5.15,5.85-17.98,2.83c0,0-16.77-5.75-25.02-8.22,0,0-8.34-3.13-17.96-1.63-4.03,.63-8.28,2.05-12.25,4.89-3.36-2.41-6.94-3.82-10.41-4.57-10.37-2.25-19.79,1.31-19.79,1.31-8.27,2.47-25.03,8.22-25.03,8.22-12.83,3.02-17.98-2.83-17.98-2.83-5.77-.66-2.75,3.65-2.75,3.65,6.63,13.85,29.82,8.12,29.82,8.12,19.26-8.19,29.81-12.26,34.86-12.42,5.05-.17,6.29,2.02,4.58,3.13-1.72,1.13-19.62,12.76-19.62,12.76-4.88,4.32-.63,5.88-.63,5.88h53.92s4.26-1.56-.64-5.88c0,0-17.9-11.63-19.61-12.76-1.72-1.11-.48-3.3,4.57-3.13,5.05,.16,15.6,4.24,34.85,12.42,0,0,23.2,5.73,29.83-8.12,0,0,3.01-4.32-2.76-3.65Z"/>
      </g>
      <g>
        <g>
          <path class="d" d="M16.11,299.73h8.28c2.49,0,4.39,.59,5.71,1.78,1.31,1.2,1.97,2.97,1.97,5.33,0,2.67-1.02,4.71-3.06,6.13-.96,.69-2.72,1.05-5.26,1.07h-6.93v8.63c-.02,1.52-.66,2.28-1.91,2.28-1.28-.02-1.91-.78-1.91-2.28v-19.84c.02-2.07,1.06-3.11,3.11-3.11Zm.71,10.5h5.88c2.08,0,3.46-.21,4.16-.64,.93-.52,1.38-1.43,1.38-2.74,0-1.09-.35-1.91-1.04-2.46-.68-.55-2-.83-3.98-.83h-6.41v6.68Z"/>
          <path class="d" d="M40.28,299.73h8.29c2.48,0,4.38,.59,5.7,1.78,1.32,1.2,1.97,2.97,1.97,5.33,0,2.67-1.01,4.71-3.05,6.13-.57,.39-1.36,.68-2.37,.86l5.89,7.37c.62,.65,.92,1.24,.92,1.76-.04,.53-.22,.98-.54,1.35-.39,.34-.84,.52-1.36,.52-.54-.02-1.11-.34-1.73-.95l-7.42-9.31c-.16-.2-.29-.38-.37-.52h-5.21v8.63c-.02,1.52-.66,2.28-1.91,2.28-1.28-.02-1.9-.78-1.9-2.28v-19.84c.02-2.07,1.06-3.11,3.1-3.11Zm.71,10.5h5.88c2.07,0,3.46-.21,4.16-.64,.93-.52,1.39-1.43,1.39-2.74,0-1.09-.35-1.91-1.05-2.46-.68-.55-2.01-.83-3.98-.83h-6.41v6.68Z"/>
          <path class="d" d="M80.4,321.29c-2.07,2.29-4.75,3.42-8.04,3.42s-5.98-1.14-8.04-3.42c-2.38-2.61-3.56-5.7-3.56-9.3,.02-3.63,1.21-6.76,3.56-9.36,2.08-2.26,4.76-3.39,8.04-3.39,3.31,.02,5.99,1.15,8.04,3.39,2.4,2.65,3.61,5.77,3.61,9.36s-1.21,6.69-3.61,9.3Zm-.21-9.3c-.02-2.54-.88-4.79-2.56-6.71-1.33-1.48-3.08-2.22-5.27-2.22-2.21,.02-3.97,.75-5.27,2.19-1.68,1.96-2.53,4.21-2.53,6.75s.84,4.76,2.53,6.69c1.3,1.48,3.05,2.22,5.27,2.22s3.96-.75,5.27-2.22c1.71-1.97,2.56-4.2,2.56-6.69Z"/>
          <path class="d" d="M90.67,313.87c-1.52-.01-2.27-.65-2.27-1.91,.02-1.25,.78-1.88,2.27-1.88h8.38c1.48,0,2.24,.63,2.24,1.88s-.76,1.91-2.24,1.91h-8.38Z"/>
          <path class="d" d="M110.14,299.73h8.29c2.48,0,4.39,.59,5.7,1.78,1.31,1.2,1.97,2.97,1.97,5.33,0,2.67-1.02,4.71-3.05,6.13-.97,.69-2.72,1.05-5.27,1.07h-6.93v8.63c-.02,1.52-.66,2.28-1.91,2.28-1.28-.02-1.91-.78-1.91-2.28v-19.84c.02-2.07,1.06-3.11,3.11-3.11Zm.71,10.5h5.88c2.07,0,3.46-.21,4.16-.64,.93-.52,1.39-1.43,1.39-2.74,0-1.09-.35-1.91-1.04-2.46-.69-.55-2-.83-3.98-.83h-6.4v6.68Z"/>
          <path class="d" d="M148.35,324.06c-.28,.44-.66,.71-1.18,.83-.52,.13-1,.05-1.45-.22-.47-.29-.84-.86-1.11-1.72l-1.84-4.81h-10.57l-1.94,4.81c-.33,.92-.72,1.48-1.17,1.69-.5,.24-.97,.31-1.43,.19-.52-.19-.93-.5-1.19-.95-.32-.52-.28-1.18,.09-2.01l9.24-21.25c.1-.31,.3-.62,.62-.92,.37-.33,.77-.49,1.23-.49,.49,0,.92,.16,1.3,.49,.33,.31,.55,.62,.67,.92l8.72,21.41c.3,.86,.3,1.54,0,2.03Zm-14.57-9.73h7.52l-3.64-9.46-3.88,9.46Z"/>
          <path class="d" d="M157,299.73h8.28c2.49,0,4.38,.59,5.7,1.78,1.31,1.2,1.97,2.97,1.97,5.33,0,2.67-1.02,4.71-3.05,6.13-.57,.39-1.36,.68-2.37,.86l5.88,7.37c.62,.65,.92,1.24,.92,1.76-.04,.53-.23,.98-.55,1.35-.39,.34-.85,.52-1.35,.52-.54-.02-1.12-.34-1.73-.95l-7.43-9.31c-.16-.2-.29-.38-.37-.52h-5.2v8.63c-.02,1.52-.66,2.28-1.91,2.28-1.28-.02-1.91-.78-1.91-2.28v-19.84c.02-2.07,1.06-3.11,3.11-3.11Zm.71,10.5h5.89c2.07,0,3.46-.21,4.16-.64,.93-.52,1.39-1.43,1.39-2.74,0-1.09-.35-1.91-1.05-2.46-.67-.55-2-.83-3.97-.83h-6.41v6.68Z"/>
          <path class="d" d="M196.4,299.73c1.52,.02,2.27,.66,2.27,1.91-.02,1.27-.78,1.91-2.27,1.91h-6.83v19.13c-.02,1.52-.66,2.28-1.92,2.28-1.28-.02-1.91-.78-1.91-2.28v-19.13h-6.87c-1.54-.02-2.31-.66-2.31-1.91s.77-1.91,2.31-1.91h17.53Z"/>
          <path class="d" d="M221.9,322.77c-.02,.62-.15,1.12-.4,1.51-.3,.44-.78,.67-1.41,.67-.57,0-1.09-.29-1.54-.86-.45-.56-.75-1-.9-1.33l-10.81-16.33v16.24c-.02,1.52-.66,2.28-1.92,2.28-1.27-.02-1.91-.78-1.91-2.28v-21.38c0-.63,.13-1.17,.4-1.6,.32-.49,.8-.74,1.48-.74,.6,0,1.15,.31,1.63,.92,.43,.57,.75,1.05,.96,1.41l10.6,16.05v-16.05c.02-1.54,.66-2.31,1.91-2.31s1.9,.77,1.9,2.31v21.47Z"/>
          <path class="d" d="M228.14,302.84c.02-2.07,1.06-3.11,3.11-3.11h13.03c1.52,.02,2.29,.66,2.29,1.91-.03,1.27-.78,1.91-2.29,1.91h-12.31v6.44h11.24c1.52,.01,2.28,.65,2.28,1.91-.02,1.28-.77,1.91-2.28,1.91h-11.24v6.69h12.49c1.52,.01,2.29,.66,2.29,1.91-.02,1.28-.79,1.91-2.29,1.91h-13.2c-2.07,0-3.11-1.05-3.11-3.15v-18.33Z"/>
          <path class="d" d="M255.63,299.73h8.29c2.49,0,4.38,.59,5.69,1.78,1.32,1.2,1.97,2.97,1.97,5.33,0,2.67-1.01,4.71-3.04,6.13-.58,.39-1.37,.68-2.38,.86l5.88,7.37c.62,.65,.92,1.24,.92,1.76-.04,.53-.23,.98-.55,1.35-.39,.34-.85,.52-1.36,.52-.54-.02-1.11-.34-1.72-.95l-7.43-9.31c-.16-.2-.29-.38-.37-.52h-5.21v8.63c-.02,1.52-.66,2.28-1.91,2.28-1.27-.02-1.91-.78-1.91-2.28v-19.84c.02-2.07,1.06-3.11,3.11-3.11Zm.71,10.5h5.89c2.07,0,3.46-.21,4.16-.64,.92-.52,1.39-1.43,1.39-2.74,0-1.09-.35-1.91-1.05-2.46-.67-.55-2.01-.83-3.98-.83h-6.41v6.68Z"/>
        </g>
        <g>
          <path class="d" d="M49.42,269.17c0,3.21-.16,6.31-.48,9.31-.32,2.99-.89,4.94-1.71,5.83-.79,.85-2.29,1.28-4.5,1.28-2.67,0-4.17-.73-4.49-2.19-1,1.14-2.57,1.71-4.71,1.71-4.07,0-6.09-.84-6.09-2.52s.66-2.62,1.97-2.62c.18,0,.36,.04,.54,.11,1.29,.32,2.27,.49,2.94,.49,.5,0,.75-.2,.75-.59v-.64h-9.14v3.26c0,1.43-.91,2.14-2.74,2.14-1.71,0-2.57-.68-2.57-2.04v-3.37H10.86v3.58c0,1.5-.91,2.24-2.73,2.24-1.72,0-2.57-.74-2.57-2.24v-16.69c0-2.97,1.35-4.44,4.07-4.44h9.57v-1.6H9.74c-1.5,0-2.25-.87-2.25-2.62-1.49,2.61-2.88,3.9-4.17,3.9-2.21,0-3.32-1.07-3.32-3.21,0-.64,.16-1.17,.48-1.6,3.06-3.64,5.43-7.54,7.11-11.71,.39-.89,1.07-1.34,2.04-1.34,2.21,0,3.32,.84,3.32,2.52,0,.21-.04,.41-.11,.59-.11,.24-.2,.49-.27,.75H45.03c2.96,0,4.44,1.52,4.44,4.55l-.05,17.17Zm1.82-28.46c0,1.68-.89,2.51-2.68,2.51h-10.32v.65c0,1.82-.98,2.73-2.94,2.73s-2.88-.93-2.88-2.79v-.59h-12.57v.65c0,1.82-.98,2.73-2.94,2.73s-2.84-.93-2.84-2.79v-.59H3.21c-1.81,0-2.73-.83-2.73-2.51,0-1.85,.93-2.78,2.78-2.78H14.06v-1.17c0-1.86,.95-2.78,2.84-2.78s2.94,.91,2.94,2.72v1.23h12.57v-1.17c0-1.86,.95-2.78,2.88-2.78s2.94,.91,2.94,2.72v1.23h10.26c1.82,0,2.74,.93,2.74,2.78Zm-32.09,14.72v-2.79H10.32c-.11,.18-.25,.41-.43,.7-.18,.32-.3,.56-.37,.69-.18,.36-.43,.82-.75,1.4h10.38Zm0,13.31v-2.14h-7.06c-.86,0-1.29,.43-1.29,1.28v.85h8.35Zm0,6.31v-1.98H10.8v1.98h8.35Zm24.88-6.1v-14.39c0-1.28-.56-1.93-1.66-1.93h-3.16c2.53,3.57,3.8,5.94,3.8,7.11,0,1.64-1,2.46-2.99,2.46-1.04,0-1.97-.86-2.79-2.57-.22-.46-.38-.84-.48-1.12-.25,1.15-.97,1.72-2.19,1.72h-10.11v1.6h10.43c2.7,0,4.06,1.48,4.06,4.44v14.07c.47-.39,.88-.59,1.24-.59,.06,0,.15,.02,.26,.06,.75,.14,1.3,.22,1.66,.22h.27c1.11-.11,1.66-3.8,1.66-11.08Zm-9.15-13.53c-.29-.47-.57-.88-.86-1.23-.18-.25-.27-.52-.27-.8s.11-.54,.32-.75h-9.62v2.79h10.43Zm-1.29,13.31v-.85c0-.85-.41-1.28-1.22-1.28h-7.92v2.14h9.14Zm0,6.31v-1.98h-9.14v1.98h9.14Z"/>
          <path class="d" d="M129.45,252.96c0,1.96-.72,2.94-2.14,2.94h-16.58c-1.18,1.6-2.69,3.35-4.55,5.24,0,.82,1.87,3.04,5.62,6.63,3.71,3.64,8.29,7.04,13.75,10.22,.65,.39,.96,1.02,.96,1.87,0,.75-.3,1.53-.91,2.36-.65,.78-1.3,1.17-1.98,1.17-1.17,0-3.87-1.68-8.08-5.03-4.17-3.35-7.25-6.38-9.25-9.09v14.34c0,1.46-.95,2.19-2.83,2.19s-2.83-.75-2.83-2.24v-18.19c-4.6,3.57-7.72,5.35-9.36,5.35-1.85,0-2.78-1.16-2.78-3.48,0-.92,.39-1.57,1.17-1.92,6.21-2.86,11.02-6.01,14.44-9.47h-24.5c-1.28,0-1.92-.98-1.92-2.94s.64-2.84,1.92-2.84h2.46v-7.7c0-2.92,1.55-4.38,4.65-4.38h12.15c.35-.61,.86-1.59,1.5-2.95,.32-.71,1.05-1.07,2.19-1.07,2.43,0,3.64,.75,3.64,2.24,0,.29-.22,.87-.65,1.77h14.18c3.07,0,4.6,1.42,4.6,4.28v7.81h3.15c1.39,0,2.05,.96,1.98,2.89Zm-30.92,21.13c0,1.39-2.69,3.55-8.08,6.48-5.34,2.92-8.69,4.39-10.05,4.39-.82,0-1.48-.45-1.98-1.34-.49-.86-.74-1.7-.74-2.52,0-1.03,.42-1.69,1.27-1.98,5.67-1.68,10.81-4.23,15.4-7.65,.43-.29,.9-.43,1.4-.43,.71,0,1.36,.32,1.92,.96,.61,.68,.9,1.38,.86,2.09Zm-18.03-5.14c-.75,0-1.36-.41-1.82-1.23-.46-.79-.68-1.55-.68-2.3,0-.9,.42-1.52,1.28-1.88,3.92-1.57,7.74-3.83,11.45-6.79,.61-.46,1.2-.7,1.77-.7,.72,0,1.36,.32,1.97,.96,.61,.61,.91,1.28,.91,2.04,0,.9-2.19,2.77-6.58,5.62-4.42,2.85-7.18,4.28-8.29,4.28Zm13.47-18.83v-6.36h-4.91c-.93,0-1.39,.48-1.39,1.44v4.92h6.31Zm12.15,0v-6.36h-6.42v6.36h6.42Zm7.27,17.82c-.67,0-1.28-.42-1.82-1.23-.57-.82-.85-1.55-.85-2.2,0-.78,.55-1.51,1.66-2.19,2.64-1.53,4.93-3.08,6.9-4.65,1.04-.79,1.83-1.17,2.41-1.17,.75,0,1.43,.32,2.03,.96,.57,.64,.86,1.27,.86,1.88,0,.92-1.65,2.58-4.93,4.97-3.28,2.39-5.37,3.61-6.26,3.65Zm5.08-17.82v-4.76c0-1.07-.53-1.6-1.61-1.6h-4.97v6.36h6.58Z"/>
          <path class="d" d="M204.77,255.54c-1.39,0-4.28-1.16-8.67-3.48-4.39-2.35-8.72-5.72-13-10.11-.45-.43-.83-.64-1.12-.64s-.54,.11-.74,.32c-3.82,3.86-8.2,7.14-13.16,9.84-4.95,2.74-8.1,4.12-9.42,4.12-1.85,0-2.78-1.28-2.78-3.85,0-1.11,.57-1.88,1.72-2.31,7.85-2.82,14.96-7.5,21.34-14.06,.9-.9,1.98-1.34,3.27-1.34s2.29,.44,3.1,1.34c5.6,6.28,12.4,10.89,20.38,13.85,1.31,.54,1.98,1.41,1.98,2.63,0,2.49-.97,3.73-2.89,3.69Zm2.62,25.61c0,1.96-.79,2.95-2.35,2.95h-46.7c-1.53,0-2.3-1.02-2.3-3.05,0-1.85,.77-2.78,2.3-2.78h4.82v-20.43c0-1.85,.94-2.78,2.83-2.78,2,0,3,.91,3,2.73v20.48h10.32v-29.47c0-1.82,.93-2.73,2.79-2.73,2.07,0,3.1,.89,3.1,2.67v11.13h16.53c1.49,0,2.25,.96,2.25,2.89s-.77,2.94-2.3,2.94h-16.43v12.57h19.9c1.49,0,2.25,.97,2.25,2.89Z"/>
          <path class="d" d="M283.24,283.61c-1.6,0-4.66-.82-9.15-2.47-4.49-1.63-8.2-3.4-11.13-5.29v7.7c0,1.56-.99,2.35-2.99,2.35s-3-.79-3-2.35v-7.7c-2.56,1.71-6.16,3.44-10.8,5.18-4.64,1.75-7.79,2.63-9.47,2.63s-2.62-1.15-2.62-3.42c0-1.61,.78-2.54,2.35-2.79,6.21-1.1,12.41-3.32,18.61-6.63h-18.18c-1.53,0-2.3-.9-2.3-2.67s.76-2.68,2.3-2.68h20.17v-2.25h-16.47c-1.53,0-2.3-.89-2.3-2.67s.77-2.62,2.3-2.62h16.47v-2.19h-18.07c-1.5,0-2.25-.9-2.25-2.68s.75-2.62,2.25-2.62h10.48c-.57-1.28-1.12-2.35-1.66-3.21h-10.59c-1.5,0-2.24-.87-2.24-2.61s.75-2.68,2.24-2.68h5.99c-.53-.75-1.32-1.75-2.35-3-.36-.36-.54-.77-.54-1.23,0-1.78,1.11-2.67,3.32-2.67,1.35,0,3.45,2.3,6.31,6.9h2.19v-5.57c0-1.56,.95-2.35,2.83-2.35s2.89,.79,2.89,2.35v5.57h4.38v-5.57c0-1.56,.97-2.35,2.9-2.35s2.88,.79,2.88,2.35v5.57h2.19c1.21-1.57,2.63-3.62,4.23-6.16,.39-.57,1-.85,1.82-.85,2.17,0,3.26,.91,3.26,2.73,0,.78-.88,2.21-2.62,4.28h5.99c1.5,0,2.25,.9,2.25,2.68s-.75,2.61-2.25,2.61h-10.59c-.36,.75-.64,1.33-.86,1.71-.25,.57-.52,1.07-.8,1.5h10.49c1.49,0,2.25,.87,2.25,2.62s-.75,2.68-2.25,2.68h-18.08v2.19h16.53c1.53,0,2.3,.87,2.3,2.62s-.77,2.67-2.3,2.67h-16.53v2.25h20.17c1.53,0,2.3,.89,2.3,2.68s-.77,2.67-2.3,2.67h-18.18c6.2,3.31,12.41,5.52,18.61,6.63,1.57,.25,2.35,1.18,2.35,2.79,0,2.28-.9,3.4-2.72,3.37Zm-17.27-36.43h-12.09c.36,.6,.66,1.12,.91,1.55,.32,.5,.62,1.05,.91,1.66h8.45c.61-.82,1.21-1.89,1.82-3.21Z"/>
        </g>
      </g>
    </g>
  </g>
</svg>